<?xml version="1.0" encoding="UTF-8" standalone="no"?>
<!-- Generator: Adobe Illustrator 16.1.0, SVG Export Plug-In . SVG Version: 6.00 Build 0)  -->

<svg
   version="1.1"
   id="Layer_1"
   x="0px"
   y="0px"
   width="48px"
   height="48px"
   viewBox="0 0 48 48"
   enable-background="new 0 0 48 48"
   xml:space="preserve"
   sodipodi:docname="SSL.svg"
   inkscape:version="1.3.2 (091e20e, 2023-11-25)"
   xmlns:inkscape="http://www.inkscape.org/namespaces/inkscape"
   xmlns:sodipodi="http://sodipodi.sourceforge.net/DTD/sodipodi-0.dtd"
   xmlns="http://www.w3.org/2000/svg"
   xmlns:svg="http://www.w3.org/2000/svg"><defs
   id="defs10" /><sodipodi:namedview
   id="namedview10"
   pagecolor="#ffffff"
   bordercolor="#000000"
   borderopacity="0.25"
   inkscape:showpageshadow="2"
   inkscape:pageopacity="0.0"
   inkscape:pagecheckerboard="0"
   inkscape:deskcolor="#d1d1d1"
   inkscape:zoom="17"
   inkscape:cx="23.970588"
   inkscape:cy="23.911765"
   inkscape:window-width="1870"
   inkscape:window-height="1016"
   inkscape:window-x="50"
   inkscape:window-y="27"
   inkscape:window-maximized="1"
   inkscape:current-layer="g10" />
<style
   type="text/css"
   id="style1">
	.st5{fill:#666666;}
	.st8{fill:none;stroke:#333333;stroke-width:2;stroke-linecap:round;stroke-miterlimit:10;}
</style>
<g
   id="g10">
	<path
   id="circle1-4"
   style="fill:#808080;stroke:#828282;stroke-opacity:1"
   class="st5"
   d="m 11.812971,35.461952 a 2.9990001,2.9990001 0 0 1 -2.9990004,2.999 2.9990001,2.9990001 0 0 1 -2.9990001,-2.999 2.9990001,2.9990001 0 0 1 2.9990001,-2.999 2.9990001,2.9990001 0 0 1 2.9990004,2.999 z" /><path
   id="circle1-1-5-9-6"
   style="fill:#ffffff;stroke:#333333"
   class="st5"
   inkscape:transform-center-x="2.9258243"
   inkscape:transform-center-y="-4.7027408"
   d="m 11.985277,9.568964 a 2.9990001,2.9990001 0 0 1 -2.9990004,2.999 2.9990001,2.9990001 0 0 1 -2.999,-2.999 2.9990001,2.9990001 0 0 1 2.999,-2.9990001 2.9990001,2.9990001 0 0 1 2.9990004,2.9990001 z" />
	<path
   id="circle2"
   style="fill:#ffffff;stroke:#333333"
   class="st5"
   d="M 6.9990001,16 A 2.9990001,2.9990001 0 0 1 4,18.999 2.9990001,2.9990001 0 0 1 1.0009999,16 2.9990001,2.9990001 0 0 1 4,13.001 2.9990001,2.9990001 0 0 1 6.9990001,16 Z" />
	<path
   id="circle3"
   style="fill:#ffffff;stroke:#333333"
   class="st5"
   d="m 20.069442,10.441568 a 2.9990001,2.9990001 0 0 1 -2.999,2.999 2.9990001,2.9990001 0 0 1 -2.999,-2.999 2.9990001,2.9990001 0 0 1 2.999,-2.9989997 2.9990001,2.9990001 0 0 1 2.999,2.9989997 z" />
	<path
   id="circle4"
   style="fill:#ffffff;stroke:#333333"
   class="st5"
   d="m 17.259297,28.891703 a 2.9990001,2.9990001 0 0 1 -2.999,2.999 2.9990001,2.9990001 0 0 1 -2.999,-2.999 2.9990001,2.9990001 0 0 1 2.999,-2.999 2.9990001,2.9990001 0 0 1 2.999,2.999 z" />
	<path
   id="circle5"
   style="fill:#ffffff"
   class="st5"
   d="M 26.999,14 A 2.9990001,2.9990001 0 0 1 24,16.999 2.9990001,2.9990001 0 0 1 21.001,14 2.9990001,2.9990001 0 0 1 24,11.001 2.9990001,2.9990001 0 0 1 26.999,14 Z" />
	<path
   id="circle6"
   style="fill:#ffffff;stroke:#333333"
   class="st5"
   d="m 25.75344,31.844803 a 2.9990001,2.9990001 0 0 1 -2.999,2.999 2.9990001,2.9990001 0 0 1 -2.999,-2.999 2.9990001,2.9990001 0 0 1 2.999,-2.999 2.9990001,2.9990001 0 0 1 2.999,2.999 z" />
	
	<path
   id="circle8"
   style="fill:#ffffff;stroke:#333333"
   class="st5"
   d="m 33.335933,35.445942 a 2.9990001,2.9990001 0 0 1 -2.999,2.999 2.9990001,2.9990001 0 0 1 -2.999,-2.999 2.9990001,2.9990001 0 0 1 2.999,-2.999 2.9990001,2.9990001 0 0 1 2.999,2.999 z" /><path
   id="circle8-2-0-9"
   style="fill:#ffffff;stroke:#333333"
   class="st5"
   d="m 41.183235,36.447525 a 2.9990001,2.9990001 0 0 1 -2.999,2.999 2.9990001,2.9990001 0 0 1 -2.999,-2.999 2.9990001,2.9990001 0 0 1 2.999,-2.999 2.9990001,2.9990001 0 0 1 2.999,2.999 z" />
	<path
   id="circle9"
   style="stroke:#000000;fill:#000000;stroke-opacity:1"
   class="st5"
   d="m 42.988201,11.235831 a 2.9990001,2.9990001 0 0 1 -2.999,2.999 2.9990001,2.9990001 0 0 1 -2.999,-2.999 2.9990001,2.9990001 0 0 1 2.999,-2.9989998 2.9990001,2.9990001 0 0 1 2.999,2.9989998 z" />
	<path
   id="circle10"
   style="fill:#ffffff;stroke:#333333"
   class="st5"
   d="m 47.018322,30.96851 a 2.9990001,2.9990001 0 0 1 -2.999001,2.999 2.9990001,2.9990001 0 0 1 -2.999,-2.999 2.9990001,2.9990001 0 0 1 2.999,-2.999 2.9990001,2.9990001 0 0 1 2.999001,2.999 z" />
	<path
   style="color:#000000;fill:#333333;stroke-linecap:round;stroke-miterlimit:10;-inkscape-stroke:none"
   d="m 45.128906,11.683594 a 0.89999998,0.89999998 0 0 0 -0.919922,0.880859 c 0,0 -0.267405,8.84594 -6.660156,12.644531 -3.145011,1.868775 -6.182278,1.211573 -8.585937,0.05078 -2.40366,-1.160792 -4.007813,-2.804688 -4.007813,-2.804688 l 0.0039,0.0059 c 0,0 -1.792735,-1.882097 -4.513672,-3.222656 -2.720936,-1.340559 -6.537176,-2.16255 -10.294921,0.07031 -7.4072357,4.4014 -7.541016,14.154297 -7.541016,14.154297 a 0.89999998,0.89999998 0 0 0 0.8808594,0.919921 0.89999998,0.89999998 0 0 0 0.9179687,-0.880859 c 0,0 0.2674054,-8.84594 6.6601559,-12.644531 3.142249,-1.867133 6.17602,-1.188345 8.580078,-0.0039 2.404059,1.184438 4.011719,2.851562 4.011719,2.851562 l 0.002,0.002 0.002,0.0039 c 0,0 1.79429,1.855717 4.515625,3.169922 2.721336,1.314206 6.534081,2.106222 10.289063,-0.125 7.407235,-4.4014 7.541016,-14.154297 7.541016,-14.154296 a 0.89999998,0.89999998 0 0 0 -0.88086,-0.917969 z"
   id="path10" />
<path
   id="circle1-1-5-8"
   style="fill:#ffffff;stroke:#333333"
   class="st5"
   inkscape:transform-center-x="2.9258243"
   inkscape:transform-center-y="-4.7027408"
   d="m 28.187877,13.815098 a 2.9990001,2.9990001 0 0 1 -2.999,2.999 2.9990001,2.9990001 0 0 1 -2.999,-2.999 2.9990001,2.9990001 0 0 1 2.999,-2.999 2.9990001,2.9990001 0 0 1 2.999,2.999 z" /><path
   id="circle1-1-5-8-1"
   style="fill:#ffffff;stroke:#333333"
   class="st5"
   inkscape:transform-center-x="2.9258243"
   inkscape:transform-center-y="-4.7027408"
   d="m 36.110248,16.850368 a 2.9990001,2.9990001 0 0 1 -2.999,2.999001 2.9990001,2.9990001 0 0 1 -2.999,-2.999001 2.9990001,2.9990001 0 0 1 2.999,-2.999 2.9990001,2.9990001 0 0 1 2.999,2.999 z" /></g>
</svg>
